 <svg  version="1.0" xmlns="http://www.w3.org/2000/svg"  width="171.000000pt" height="183.000000pt" viewBox="0 0 171.000000 183.000000"  preserveAspectRatio="xMidYMid meet">  <g transform="translate(0.000000,183.000000) scale(0.100000,-0.100000)" fill="#271254" stroke="none"> <path d="M646 1793 c-58 -9 -148 -85 -177 -148 -13 -28 -18 -30 -84 -35 -144 -11 -236 -101 -251 -245 -7 -67 -9 -72 -58 -120 -42 -42 -53 -60 -62 -103 -28 -137 65 -252 203 -252 50 0 65 5 109 35 57 39 96 97 77 116 -12 12 -30 -4 -66 -55 -46 -66 -178 -75 -237 -16 -74 74 -66 217 15 260 23 12 28 11 50 -10 22 -21 25 -22 31 -5 4 10 0 29 -10 45 -38 65 -10 186 59 253 36 35 115 67 166 67 40 0 120 -42 162 -85 37 -38 57 -45 57 -19 0 21 -80 101 -105 106 -33 5 -30 48 6 91 111 134 322 108 389 -48 29 -68 31 -100 10 -159 -10 -30 -16 -57 -13 -60 20 -19 43 11 67 87 12 37 122 17 188 -35 54 -42 78 -96 78 -173 0 -113 -67 -199 -176 -225 -65 -16 -85 -8 -95 36 -15 68 -61 119 -118 130 -45 9 -41 -20 7 -43 44 -21 84 -92 75 -133 -19 -83 -62 -115 -171 -125 -92 -9 -160 -42 -207 -100 -37 -47 -73 -151 -57 -167 18 -18 42 -1 42 29 0 38 34 103 72 139 44 42 106 64 177 64 71 0 104 17 148 75 29 39 36 43 86 47 173 14 290 169 252 333 -27 115 -134 205 -244 205 -40 0 -53 4 -57 18 -46 146 -121 216 -240 225 -38 2 -82 3 -98 0z"/> <path d="M432 1344 c-29 -51 61 -154 134 -154 43 0 84 22 84 46 0 16 -36 19 -45 4 -11 -17 -61 -11 -96 13 -26 18 -35 31 -39 62 -5 42 -23 56 -38 29z"/> <path d="M949 842 c-101 -38 -119 -86 -119 -327 0 -188 12 -250 54 -290 26 -25 74 -47 87 -40 18 12 8 35 -18 41 -64 17 -83 79 -83 278 0 143 0 146 23 151 12 3 164 4 337 3 l315 -3 3 -77 c2 -60 6 -78 17 -78 22 0 28 43 21 148 -9 122 -35 166 -111 193 -72 26 -457 26 -526 1z m489 -33 c40 -10 60 -21 78 -44 28 -37 30 -51 8 -59 -9 -3 -152 -6 -318 -6 -309 0 -331 3 -319 39 17 48 74 75 178 84 78 6 326 -3 373 -14z"/> <path d="M1162 413 c-24 -3 -41 -15 -62 -45 -29 -39 -30 -46 -30 -145 0 -115 9 -144 59 -181 29 -21 38 -22 246 -22 l215 0 40 41 40 41 0 118 0 117 -34 39 -34 39 -203 1 c-112 1 -219 0 -237 -3z m439 -62 c28 -28 29 -33 29 -125 0 -105 -10 -138 -47 -155 -32 -15 -394 -15 -426 0 -37 17 -49 54 -48 152 1 87 16 139 43 150 7 3 104 6 216 6 l204 1 29 -29z"/> <path d="M1260 259 c-34 -41 -34 -40 4 -83 23 -26 39 -37 50 -33 23 9 20 22 -9 45 -14 11 -25 25 -25 30 0 6 11 19 25 30 14 11 25 25 25 31 0 22 -46 9 -70 -20z"/> <path d="M1410 282 c0 -5 11 -19 25 -32 14 -13 25 -28 25 -33 0 -5 -11 -18 -25 -29 -29 -23 -32 -36 -9 -45 11 -4 27 7 50 32 19 21 34 42 34 46 0 20 -54 69 -76 69 -13 0 -24 -4 -24 -8z"/> </g> </svg> 